<?xml version="1.0" standalone="no"?>
<!DOCTYPE svg PUBLIC "-//W3C//DTD SVG 20010904//EN"
 "http://www.w3.org/TR/2001/REC-SVG-20010904/DTD/svg10.dtd">
<svg version="1.0" xmlns="http://www.w3.org/2000/svg"
 width="1178.000000pt" height="1178.000000pt" viewBox="0 0 1178.000000 1178.000000"
 preserveAspectRatio="xMidYMid meet">
<metadata>
Created by potrace 1.11, written by Peter Selinger 2001-2013
</metadata>
<g transform="translate(0.000000,1178.000000) scale(0.100000,-0.100000)"
fill="#000000" stroke="none">
<path d="M6387 11774 c-1 -1 -25 -4 -52 -8 -494 -58 -951 -339 -1233 -757
-158 -233 -262 -521 -288 -794 -24 -255 6 -542 81 -770 31 -92 109 -261 159
-344 19 -31 51 -93 69 -137 19 -43 48 -108 65 -144 48 -103 108 -293 118 -374
2 -16 8 -45 13 -65 21 -83 35 -270 35 -481 1 -268 -4 -316 -50 -463 -87 -274
-277 -526 -527 -696 -59 -40 -212 -117 -252 -127 -16 -4 -34 -10 -40 -14 -5
-4 -32 -12 -60 -19 -47 -10 -62 -13 -145 -27 -63 -11 -275 -7 -331 6 -120 28
-283 123 -358 207 -132 148 -194 363 -195 673 0 262 75 496 223 694 49 65 57
82 49 96 -11 16 -15 16 -67 -7 -242 -106 -494 -250 -731 -418 -81 -57 -259
-192 -270 -204 -3 -3 -32 -28 -65 -56 -182 -151 -422 -396 -516 -525 -76 -105
-199 -289 -199 -297 0 -3 -8 -17 -19 -31 -40 -59 -152 -273 -220 -422 -119
-262 -245 -678 -276 -910 -2 -14 -6 -45 -10 -70 -10 -63 -13 -86 -20 -160 -4
-36 -10 -96 -15 -135 -8 -74 -5 -629 4 -680 3 -16 7 -59 10 -95 4 -36 8 -81
11 -100 3 -19 7 -57 11 -85 22 -194 108 -565 186 -799 198 -596 475 -1084 902
-1591 61 -72 363 -378 427 -431 l36 -30 -171 -176 c-238 -245 -387 -407 -599
-656 l-97 -113 32 -47 c39 -57 117 -133 155 -152 15 -8 36 -21 45 -28 15 -13
20 -13 37 -1 23 17 243 197 286 234 17 14 55 47 84 73 30 26 62 54 71 62 9 8
34 30 55 49 60 51 280 254 447 414 l40 37 101 -67 c169 -112 343 -211 517
-295 201 -97 234 -112 285 -131 22 -9 87 -33 145 -55 100 -38 371 -126 422
-136 38 -8 60 -13 123 -29 66 -17 237 -52 300 -62 22 -3 56 -8 75 -11 52 -9
78 -12 155 -19 39 -4 72 -9 75 -10 15 -9 278 -20 475 -19 199 0 348 6 460 19
22 2 64 7 94 11 50 5 66 8 136 19 17 2 47 7 69 11 39 6 268 51 296 58 8 3 35
9 60 15 148 37 227 61 390 117 562 193 1095 503 1545 898 135 118 347 331 450
451 37 44 77 91 89 105 12 14 42 52 66 85 25 33 47 62 50 65 11 10 109 147
157 220 216 326 394 686 514 1040 22 63 44 129 50 145 49 139 128 486 154 673
3 20 7 46 10 57 2 11 7 52 11 90 3 39 8 79 10 90 11 57 19 256 19 470 0 266
-6 343 -41 610 -12 89 -65 338 -99 460 -20 72 -38 137 -40 145 -15 65 -142
398 -197 520 -37 81 -177 362 -206 413 -12 20 -30 52 -41 70 -66 115 -107 181
-207 335 l-113 172 72 103 c62 86 194 281 221 325 9 16 -43 -21 -245 -170 -98
-72 -152 -106 -163 -102 -9 3 -16 10 -16 14 0 4 -42 61 -93 126 -94 121 -105
134 -167 208 -19 23 -55 66 -80 96 -62 74 -193 222 -261 295 -53 56 -84 91
-155 174 -16 19 -36 41 -45 50 -8 9 -64 70 -124 136 -179 197 -727 740 -974
965 -258 235 -632 603 -730 719 -131 154 -249 337 -266 413 -2 13 -11 52 -19
88 -8 36 -18 92 -21 125 -4 33 -9 64 -12 68 -6 10 -5 304 1 332 2 11 7 48 11
83 6 57 54 265 70 304 6 16 -2 17 -99 16 -59 -1 -108 -3 -109 -4z"/>
</g>
</svg>
