<svg xmlns="http://www.w3.org/2000/svg" width="344.66" height="436.971" viewBox="0 0 344.66 436.971">
  <g id="Group_1" data-name="Group 1" transform="translate(-787.371 -321.752)">
    <path id="path13900-7-8" d="M209.91,8.98A64.623,64.623,0,0,0,145.286,73.6c-.066,14.313,3.865,26.8,10.628,36.879.528,1.363,1.178,2.961,2.235,5.381q1.467,2.88,2.64,5.9t2.036,6.13a64.376,64.376,0,0,1,1.414,6.3c1.607,8.147,1.638,15.158,1.668,22.9,0,23.793-20.962,46.05-44.756,46.05-6.17-.017-9.181.119-17.335-5-8.856-5.986-10.843-18.006-10.862-28.52a42.9,42.9,0,0,1,10.582-28.265c-.342-.446-.64-.863-.991-1.317C81,149.263,62.14,163.4,46.178,180.092c-21.622,26.933-32.7,57.436-32.763,91.99a172.33,172.33,0,0,0,344.66,0c0-55.072-30.394-99.818-64.437-136.46-38.777-44.82-75.192-68.247-82.86-88.341a64.4,64.4,0,0,1-2.194-12.714q-.161-2.283-.162-4.572,0-3.232.324-6.451A64.443,64.443,0,0,1,211.309,10.9q.317-.912.661-1.814c-.687-.05-1.374-.083-2.061-.1Z" transform="translate(773.956 312.772)" fill="#4a3655"/>
    <path id="path1673-9-7-3-7-5-5-4-4-5-3-8-8-4-8-8" d="M166.679,43.513a21.541,21.541,0,0,1,13.152,4.5A172.33,172.33,0,0,1,230.647,78.4q-7.363,6.892-14.414,14.107c.05.145.1.29.158.433q.42.992.937,1.939t1.124,1.835q.609.888,1.3,1.713a21.246,21.246,0,0,0,3.085,3q.843.669,1.75,1.253a21.477,21.477,0,0,0,3.834,1.951c.234.083.468.159.7.235q7.019-7.322,13.705-14.953a172.326,172.326,0,0,1,29.727,41.621,21.541,21.541,0,0,1,8.355,17.019c-.018.673-.05,1.346-.114,2.016l.033.1-.058.083A21.542,21.542,0,0,1,267.744,168.4a107.706,107.706,0,0,1-64.988-27.327,107.706,107.706,0,0,0,59.267,34.372A452.356,452.356,0,0,1,128.186,293.3c-2.359,1.455-7.082,2.36-10.513.918a172.332,172.332,0,0,1-88.23-87.375c-.9-10.974-.554-12.454,1.58-15.363q2.019-3.213,4.091-6.391h0c40.49-59.246,60.57-78.646,96.877-112.457q3.231-2.792,6.513-5.522a107.706,107.706,0,0,0,34.32,59.059A107.7,107.7,0,0,1,145.5,61.179a21.541,21.541,0,0,1,21.179-17.664Zm28.147,27.655a107.7,107.7,0,0,0,6.1,26.757,172.34,172.34,0,0,0,19.008,24.451,64.628,64.628,0,0,1-7.341-14.846,107.707,107.707,0,0,0,46.36,19.211,107.7,107.7,0,0,1-64.126-55.574Z" transform="translate(826.588 429.557)" fill="#ede3f2"/>
    <path id="path3993-3-7-9-0-0-8-2-60" d="M89.05,91.1a43.082,43.082,0,0,0,9.23,9.79,452.36,452.36,0,0,1-39.4,41.424q-14.329,13.6-29.8,25.9-.253-.11-.5-.226a21.493,21.493,0,0,1-3.619-2.324q-.844-.669-1.617-1.421t-1.468-1.576q-.695-.823-1.3-1.713-.513-.764-.96-1.57,13.032-15.746,27.446-30.268a452.359,452.359,0,0,1,42-38.022Z" transform="translate(794.894 590.501)" fill="#f75965"/>
    <path id="path1673-9-7-3-1-28-2-6-9-0-4-5-9-2-0-0-5-4" d="M135.288,42.234a373.188,373.188,0,0,1-30.407,40.741q-10.49,12.5-22.043,24.051-.292-.092-.581-.193-.828-.322-1.622-.725a17.77,17.77,0,0,1-1.541-.884q-.747-.48-1.444-1.033t-1.336-1.172q-.637-.619-1.209-1.3t-1.076-1.413q-.5-.733-.927-1.514t-.773-1.6q-.067-.178-.13-.358,11.2-11.965,23.412-22.914a373.19,373.19,0,0,1,39.679-31.686Z" transform="translate(972.748 425.232)" fill="#f75965"/>
    <path id="path1673-9-7-3-7-5-5-4-4-5-3-6-9-9-8-3-6" d="M199.292,67.329q.018.339.025.678-.01,1.01-.114,2.016l.033.1-.058.083a21.541,21.541,0,0,1-13.035,17.649,107.706,107.706,0,0,1-36.079-8.892A280.03,280.03,0,0,0,199.288,67.33ZM145.56,81.084A107.706,107.706,0,0,0,180.426,94.9,452.362,452.362,0,0,1,53.107,208.489a280.033,280.033,0,0,0,92.453-127.4Z" transform="translate(908.187 510.101)" fill="#f2b3be"/>
  </g>
</svg>
