<?xml version="1.0" encoding="UTF-8" standalone="no"?>
<svg
   xmlns:dc="http://purl.org/dc/elements/1.1/"
   xmlns:cc="http://creativecommons.org/ns#"
   xmlns:rdf="http://www.w3.org/1999/02/22-rdf-syntax-ns#"
   xmlns:svg="http://www.w3.org/2000/svg"
   xmlns="http://www.w3.org/2000/svg"
   id="svg20048"
   version="1.1"
   viewBox="0 0 210 297"
   height="297mm"
   width="210mm">
  <defs
     id="defs20042" />
  <metadata
     id="metadata20045">
    <rdf:RDF>
      <cc:Work
         rdf:about="">
        <dc:format>image/svg+xml</dc:format>
        <dc:type
           rdf:resource="http://purl.org/dc/dcmitype/StillImage" />
        <dc:title></dc:title>
      </cc:Work>
    </rdf:RDF>
  </metadata>
  <g
     id="layer1">
    <path
       id="path13900-7-8"
       d="m 58.257953,8.9797108 c -8.145087,-3.77e-5 -14.747974,6.6028682 -14.747955,14.7479362 -0.01508,3.266383 0.882038,6.115152 2.425426,8.416298 0.120417,0.311104 0.268855,0.675822 0.51016,1.22808 0.223119,0.438193 0.424191,0.887221 0.60246,1.345464 0.178081,0.45828 0.333209,0.925173 0.464744,1.398944 0.131724,0.473865 0.239194,0.954024 0.322751,1.438687 0.366828,1.859298 0.373801,3.459201 0.380735,5.225482 -5.6e-5,5.429964 -4.783859,10.509192 -10.213766,10.509287 -1.408027,-0.0038 -2.095194,0.02714 -3.956094,-1.141603 -2.021135,-1.366061 -2.474421,-4.109281 -2.478906,-6.508626 3.7e-5,-2.468976 0.912038,-4.723708 2.415023,-6.450434 -0.07802,-0.101761 -0.146045,-0.197039 -0.226229,-0.300496 -4.916732,2.105672 -9.221318,5.331407 -12.863932,9.141342 -4.934428,6.146547 -7.46314,13.107685 -7.476897,20.993437 1.9e-5,21.720249 17.607917,39.327941 39.32813,39.327691 21.720098,-3e-5 39.327717,-17.607645 39.327732,-39.327691 C 92.07132,56.455284 85.134921,46.243477 77.365875,37.881244 68.516609,27.652666 60.206234,22.306278 58.456235,17.720644 58.324512,17.24693 58.216702,16.76694 58.133013,16.282447 c -0.08367,-0.484494 -0.142842,-0.97285 -0.177515,-1.463299 -0.0245,-0.347286 -0.03694,-0.695345 -0.03694,-1.043498 7.6e-5,-0.491692 0.02469,-0.983064 0.07387,-1.472306 0.04881,-0.489242 0.122489,-0.975696 0.220067,-1.457608 0.09761,-0.481893 0.219501,-0.9585657 0.364887,-1.4282851 0.04824,-0.1386959 0.09856,-0.2768265 0.150944,-0.4140902 -0.156786,-0.011307 -0.313479,-0.018845 -0.470416,-0.023556 z"
       style="display:inline;opacity:1;fill:#4a3655;fill-opacity:1;fill-rule:nonzero;stroke:none;stroke-width:0.6692766;stroke-linecap:round;stroke-linejoin:round;stroke-miterlimit:4;stroke-dasharray:none;stroke-opacity:1;paint-order:markers stroke fill" />
    <path
       id="path1673-9-7-3-7-5-5-4-4-5-3-8-8-4-8-8"
       d="m 60.403405,43.512637 c 1.086332,9.48e-4 2.14174,0.361797 3.001374,1.02603 4.236855,1.625587 8.160462,3.972205 11.596992,6.935982 -1.120289,1.048587 -2.21708,2.122029 -3.289544,3.219517 0.01131,0.03317 0.02359,0.06614 0.03599,0.09893 0.06388,0.150945 0.135304,0.298667 0.213923,0.442508 0.07858,0.143972 0.164136,0.283572 0.256512,0.41882 0.09271,0.135115 0.19197,0.265651 0.297691,0.390911 0.105153,0.125317 0.217124,0.245432 0.334602,0.359667 0.11759,0.114198 0.241041,0.222347 0.36954,0.324164 0.128332,0.101761 0.261638,0.197303 0.399469,0.285872 0.137942,0.08876 0.280277,0.170355 0.426375,0.24464 0.146234,0.07444 0.295861,0.141334 0.448651,0.200676 0.05333,0.01884 0.106849,0.03637 0.160744,0.05352 1.067957,-1.114014 2.11078,-2.251811 3.127706,-3.412597 2.721268,2.811117 5.007772,6.012597 6.784058,9.498617 1.20179,0.930316 1.905712,2.364181 1.90675,3.883976 -0.004,0.153583 -0.01131,0.307183 -0.02602,0.460033 l 0.0075,0.02263 -0.01319,0.01884 c -0.182415,1.784877 -1.322508,3.328664 -2.974874,4.027835 -5.503382,-0.356162 -10.727092,-2.55274 -14.831212,-6.236532 3.534505,4.017188 8.283372,6.771319 13.525529,7.844159 -8.298333,10.907059 -18.682377,20.048851 -30.543178,26.896435 -0.538426,0.33214 -1.616222,0.53865 -2.399119,0.20946 -8.962073,-3.915787 -16.138381,-11.029831 -20.13516,-19.940198 -0.205537,-2.504478 -0.126447,-2.842207 0.360515,-3.506068 0.307148,-0.488768 0.618403,-0.974978 0.93371,-1.458546 h 4.98e-4 C 39.61955,62.30109 44.201998,57.873619 52.487684,50.157472 c 0.491504,-0.424755 0.987022,-0.844858 1.486459,-1.260249 1.079246,5.22356 3.828327,9.9543 7.832324,13.478192 -3.68379,-4.104099 -5.880368,-9.32783 -6.236511,-14.831193 0.427074,-2.334124 2.460477,-4.030038 4.833326,-4.03117 z m 6.423469,6.311305 c 0.201652,2.086488 0.669359,4.138603 1.391784,6.106389 1.275548,1.986442 2.727353,3.854014 4.337865,5.580096 -0.701453,-1.052803 -1.264492,-2.191506 -1.675339,-3.388022 3.132266,2.274066 6.757338,3.776239 10.58001,4.384223 C 75.053127,60.459753 69.76393,55.875964 66.826874,49.823942 Z"
       style="display:inline;opacity:1;fill:#ede3f2;fill-opacity:1;fill-rule:nonzero;stroke:none;stroke-width:0.6692766;stroke-linecap:round;stroke-linejoin:round;stroke-miterlimit:4;stroke-dasharray:none;stroke-opacity:1;paint-order:markers stroke fill" />
    <path
       id="path3993-3-7-9-0-0-8-2-60"
       d="m 35.454517,91.103162 a 9.8319277,9.8319271 0 0 0 2.106425,2.234191 103.23523,103.23522 0 0 1 -8.990811,9.453637 103.23523,103.23522 0 0 1 -6.801584,5.91189 4.915964,4.9159633 0 0 1 -0.114951,-0.0516 4.915964,4.9159633 0 0 1 -0.426415,-0.24464 4.915964,4.9159633 0 0 1 -0.399429,-0.28584 4.915964,4.9159633 0 0 1 -0.369108,-0.32418 4.915964,4.9159633 0 0 1 -0.335094,-0.35969 4.915964,4.9159633 0 0 1 -0.297669,-0.39089 4.915964,4.9159633 0 0 1 -0.219105,-0.35823 103.23523,103.23522 0 0 1 6.263477,-6.907567 103.23523,103.23522 0 0 1 9.584302,-8.677087 z"
       style="display:inline;opacity:1;fill:#f75965;fill-opacity:1;fill-rule:nonzero;stroke:none;stroke-width:0.6692766;stroke-linecap:round;stroke-linejoin:round;stroke-miterlimit:4;stroke-dasharray:none;stroke-opacity:1;paint-order:markers stroke fill" />
    <path
       id="path1673-9-7-3-1-28-2-6-9-0-4-5-9-2-0-0-5-4"
       d="m 86.595052,42.233657 a 85.165706,85.165694 0 0 1 -6.939277,9.297771 85.165706,85.165694 0 0 1 -5.030533,5.488891 4.0555104,4.0555103 0 0 1 -0.132665,-0.0441 4.0555104,4.0555103 0 0 1 -0.370087,-0.165455 4.0555104,4.0555103 0 0 1 -0.351754,-0.201827 4.0555104,4.0555103 0 0 1 -0.329518,-0.235819 4.0555104,4.0555103 0 0 1 -0.30492,-0.267442 4.0555104,4.0555103 0 0 1 -0.276018,-0.296728 4.0555104,4.0555103 0 0 1 -0.245563,-0.322449 4.0555104,4.0555103 0 0 1 -0.211609,-0.345532 4.0555104,4.0555103 0 0 1 -0.176385,-0.365056 4.0555104,4.0555103 0 0 1 -0.02978,-0.0816 85.165706,85.165694 0 0 1 5.342864,-5.229251 85.165706,85.165694 0 0 1 9.055315,-7.231294 z"
       style="display:inline;opacity:1;fill:#f75965;fill-opacity:1;fill-rule:nonzero;stroke:none;stroke-width:0.87206918;stroke-linecap:round;stroke-linejoin:round;stroke-miterlimit:4;stroke-dasharray:none;stroke-opacity:1;paint-order:markers stroke fill" />
    <path
       id="path1673-9-7-3-7-5-5-4-4-5-3-6-9-9-8-3-6"
       d="m 86.468041,67.329231 a 4.915964,4.9159633 0 0 1 0.0057,0.154714 4.915964,4.9159633 0 0 1 -0.02603,0.460015 39.327704,39.327704 0 0 1 0.0075,0.02259 103.23522,103.23521 0 0 1 -0.01319,0.01884 4.915964,4.9159633 0 0 1 -2.97482,4.027833 24.579819,24.579817 0 0 1 -8.233675,-2.029314 63.907523,63.90752 0 0 0 11.233575,-2.65446 z m -12.262394,3.139088 a 24.579819,24.579817 0 0 0 7.956772,3.152319 103.23522,103.23521 0 0 1 -29.055776,25.923321 63.907523,63.90752 0 0 0 21.099004,-29.07564 z"
       style="display:inline;opacity:1;fill:#f2b3be;fill-opacity:1;fill-rule:nonzero;stroke:none;stroke-width:0.6692766;stroke-linecap:round;stroke-linejoin:round;stroke-miterlimit:4;stroke-dasharray:none;stroke-opacity:1;paint-order:markers stroke fill" />
    <path
       id="path13900-7-8-3"
       d="m 157.8415,12.324418 c -8.14509,-3.8e-5 -14.74797,6.602867 -14.74795,14.747935 -0.0151,3.266383 0.88203,6.115152 2.42542,8.416298 0.12042,0.311105 0.26886,0.675822 0.51016,1.228081 0.22312,0.438192 0.42419,0.88722 0.60246,1.345463 0.17808,0.458281 0.33321,0.925174 0.46475,1.398944 0.13172,0.473866 0.23919,0.954025 0.32275,1.438688 0.36683,1.859298 0.3738,3.4592 0.38073,5.225481 -5e-5,5.429964 -4.78386,10.509195 -10.21376,10.509289 -1.40803,-0.0038 -2.0952,0.02714 -3.9561,-1.141603 -2.02113,-1.366062 -2.47442,-4.109283 -2.4789,-6.508628 3e-5,-2.468975 0.91204,-4.723707 2.41502,-6.450434 -0.078,-0.10176 -0.14605,-0.197038 -0.22623,-0.300495 -4.91673,2.105672 -9.22132,5.331407 -12.86393,9.141342 -4.93443,6.146547 -7.46314,13.107685 -7.4769,20.993437 2e-5,21.720249 17.60792,39.327934 39.32813,39.327694 21.7201,-4e-5 39.32771,-17.607649 39.32773,-39.327694 -2e-5,-12.568226 -6.93641,-22.780031 -14.70546,-31.142265 -8.84926,-10.228579 -17.15964,-15.574967 -18.90964,-20.1606 -0.13172,-0.473715 -0.23953,-0.953704 -0.32322,-1.438198 -0.0837,-0.484493 -0.14284,-0.97285 -0.17751,-1.463298 -0.0245,-0.347287 -0.0369,-0.695345 -0.0369,-1.043499 8e-5,-0.491692 0.0247,-0.983063 0.0739,-1.472306 0.0488,-0.489242 0.12249,-0.975695 0.22007,-1.457607 0.0976,-0.481893 0.2195,-0.958566 0.36489,-1.428285 0.0482,-0.138696 0.0985,-0.276827 0.15094,-0.41409 -0.15679,-0.01131 -0.31348,-0.01884 -0.47042,-0.02356 z"
       style="display:inline;opacity:1;fill:#f75965;fill-opacity:1;fill-rule:nonzero;stroke:none;stroke-width:0.6692766;stroke-linecap:round;stroke-linejoin:round;stroke-miterlimit:4;stroke-dasharray:none;stroke-opacity:1;paint-order:markers stroke fill" />
    <path
       id="path1673-9-7-3-7-5-5-4-4-5-3-8-8-4-8-8-9"
       d="m 159.98695,46.857344 c 1.08634,9.48e-4 2.14174,0.361796 3.00138,1.026029 4.23685,1.625588 8.16046,3.972206 11.59699,6.935983 -1.12029,1.048586 -2.21708,2.12203 -3.28954,3.219518 0.0113,0.03317 0.0236,0.06614 0.036,0.09893 0.0639,0.150945 0.1353,0.298668 0.21392,0.44251 0.0786,0.143972 0.16414,0.283571 0.25651,0.41882 0.0927,0.135116 0.19197,0.265652 0.2977,0.390912 0.10515,0.125316 0.21712,0.245431 0.3346,0.359665 0.11759,0.114198 0.24104,0.222347 0.36954,0.324166 0.12833,0.10176 0.26163,0.1973 0.39947,0.28587 0.13794,0.08876 0.28027,0.170354 0.42637,0.24464 0.14623,0.07444 0.29586,0.141334 0.44865,0.200675 0.0533,0.01885 0.10685,0.03637 0.16075,0.05352 1.06795,-1.114017 2.11078,-2.251813 3.1277,-3.412598 2.72127,2.811115 5.00777,6.012596 6.78406,9.498616 1.20179,0.930316 1.90571,2.364181 1.90675,3.883975 -0.004,0.153583 -0.0113,0.307183 -0.026,0.460034 l 0.008,0.02263 -0.0132,0.01884 c -0.18242,1.784877 -1.32249,3.328665 -2.97488,4.027835 -5.50338,-0.356162 -10.72708,-2.55274 -14.8312,-6.236531 3.53451,4.017187 8.28337,6.771319 13.52552,7.844158 -8.29832,10.90706 -18.68237,20.048852 -30.54317,26.896439 -0.53843,0.33213 -1.61622,0.53865 -2.39912,0.20945 -8.96207,-3.91578 -16.13838,-11.029825 -20.13516,-19.940191 -0.20554,-2.504479 -0.12644,-2.842207 0.36052,-3.506069 0.30715,-0.488767 0.6184,-0.974977 0.93371,-1.458546 h 5e-4 c 9.24025,-13.520836 13.8227,-17.948308 22.10839,-25.664455 0.4915,-0.424754 0.98702,-0.844858 1.48646,-1.260248 1.07924,5.223559 3.82832,9.9543 7.83232,13.478191 -3.68379,-4.104098 -5.88037,-9.327829 -6.23651,-14.831192 0.42707,-2.334124 2.46048,-4.030038 4.83333,-4.031171 z m 6.42347,6.311304 c 0.20165,2.08649 0.66936,4.138604 1.39179,6.106389 1.27554,1.986444 2.72735,3.854015 4.33786,5.580097 -0.70145,-1.052804 -1.26449,-2.191507 -1.67534,-3.388023 3.13227,2.274067 6.75734,3.776239 10.58001,4.384223 -6.40806,-2.046874 -11.69726,-6.630663 -14.63432,-12.682686 z"
       style="display:inline;opacity:1;fill:#ede3f2;fill-opacity:1;fill-rule:nonzero;stroke:none;stroke-width:0.6692766;stroke-linecap:round;stroke-linejoin:round;stroke-miterlimit:4;stroke-dasharray:none;stroke-opacity:1;paint-order:markers stroke fill" />
    <path
       id="path3993-3-7-9-0-0-8-2-60-18"
       d="m 135.03807,94.447868 a 9.8319277,9.8319271 0 0 0 2.10642,2.234191 103.23523,103.23522 0 0 1 -8.99081,9.453631 103.23523,103.23522 0 0 1 -6.80158,5.9119 4.915964,4.9159633 0 0 1 -0.11496,-0.0516 4.915964,4.9159633 0 0 1 -0.42641,-0.24465 4.915964,4.9159633 0 0 1 -0.39943,-0.28583 4.915964,4.9159633 0 0 1 -0.36911,-0.32418 4.915964,4.9159633 0 0 1 -0.33509,-0.35969 4.915964,4.9159633 0 0 1 -0.29767,-0.39089 4.915964,4.9159633 0 0 1 -0.21911,-0.35823 103.23523,103.23522 0 0 1 6.26348,-6.90757 103.23523,103.23522 0 0 1 9.5843,-8.677088 z"
       style="display:inline;opacity:1;fill:#4c3857;fill-opacity:1;fill-rule:nonzero;stroke:none;stroke-width:0.6692766;stroke-linecap:round;stroke-linejoin:round;stroke-miterlimit:4;stroke-dasharray:none;stroke-opacity:1;paint-order:markers stroke fill" />
    <path
       id="path1673-9-7-3-1-28-2-6-9-0-4-5-9-2-0-0-5-4-8"
       d="m 186.1786,45.578366 a 85.165706,85.165694 0 0 1 -6.93928,9.297769 85.165706,85.165694 0 0 1 -5.03053,5.488892 4.0555104,4.0555103 0 0 1 -0.13266,-0.0441 4.0555104,4.0555103 0 0 1 -0.37009,-0.165455 4.0555104,4.0555103 0 0 1 -0.35175,-0.201827 4.0555104,4.0555103 0 0 1 -0.32952,-0.235819 4.0555104,4.0555103 0 0 1 -0.30492,-0.267442 4.0555104,4.0555103 0 0 1 -0.27602,-0.296728 4.0555104,4.0555103 0 0 1 -0.24556,-0.322449 4.0555104,4.0555103 0 0 1 -0.21161,-0.345532 4.0555104,4.0555103 0 0 1 -0.17639,-0.365057 4.0555104,4.0555103 0 0 1 -0.0298,-0.0816 85.165706,85.165694 0 0 1 5.34286,-5.22925 85.165706,85.165694 0 0 1 9.05531,-7.231294 z"
       style="display:inline;opacity:1;fill:#4a3655;fill-opacity:1;fill-rule:nonzero;stroke:none;stroke-width:0.87206918;stroke-linecap:round;stroke-linejoin:round;stroke-miterlimit:4;stroke-dasharray:none;stroke-opacity:1;paint-order:markers stroke fill" />
    <path
       id="path1673-9-7-3-7-5-5-4-4-5-3-6-9-9-8-3-6-7"
       d="m 186.05159,70.673938 a 4.915964,4.9159633 0 0 1 0.006,0.154714 4.915964,4.9159633 0 0 1 -0.026,0.460014 39.327704,39.327704 0 0 1 0.008,0.02259 103.23522,103.23521 0 0 1 -0.0132,0.01884 4.915964,4.9159633 0 0 1 -2.97482,4.027833 24.579819,24.579817 0 0 1 -8.23367,-2.029313 63.907523,63.90752 0 0 0 11.23357,-2.654457 z m -12.26239,3.139088 a 24.579819,24.579817 0 0 0 7.95676,3.152319 103.23522,103.23521 0 0 1 -29.05577,25.923325 63.907523,63.90752 0 0 0 21.09901,-29.075644 z"
       style="display:inline;opacity:1;fill:#f2b3be;fill-opacity:1;fill-rule:nonzero;stroke:none;stroke-width:0.6692766;stroke-linecap:round;stroke-linejoin:round;stroke-miterlimit:4;stroke-dasharray:none;stroke-opacity:1;paint-order:markers stroke fill" />
  </g>
</svg>
