<svg xmlns="http://www.w3.org/2000/svg" xmlns:xlink="http://www.w3.org/1999/xlink" width="411.698" height="529.251" viewBox="0 0 411.698 529.251">
  <defs>
    <linearGradient id="linear-gradient" x1="-0.261" y1="1.446" x2="0.902" y2="1.446" gradientUnits="objectBoundingBox">
      <stop offset="0" stop-color="#3f244d"/>
      <stop offset="0.182" stop-color="#8d2c59"/>
      <stop offset="0.383" stop-color="#c53e57"/>
      <stop offset="0.643" stop-color="#f95570"/>
      <stop offset="1" stop-color="#f24cc8"/>
    </linearGradient>
  </defs>
  <path id="path13900-9-6-0" d="M211.611,239.3c42.633,0,77.193,35.167,77.193,78.548.076,17.4-4.617,32.569-12.7,44.825-.63,1.657-1.407,3.6-2.67,6.541q-1.752,3.5-3.153,7.166t-2.432,7.451q-1.033,3.786-1.689,7.662c-1.92,9.9-1.957,18.424-1.993,27.831,0,28.92,25.039,55.972,53.461,55.972,7.37-.02,10.966.145,20.707-6.08,10.579-7.276,12.952-21.886,12.975-34.665a52.682,52.682,0,0,0-12.641-34.355c.408-.543.764-1.05,1.184-1.6,25.735,11.215,48.266,28.395,67.332,48.686,25.828,32.736,39.063,69.811,39.135,111.811,0,115.682-92.163,209.461-205.851,209.459S34.626,674.769,34.626,559.088c0-66.938,36.306-121.326,76.971-165.864,46.319-54.477,89.817-82.952,98.976-107.375q1.033-3.784,1.692-7.66t.929-7.793q.193-2.774.193-5.558,0-3.928-.387-7.841t-1.152-7.763q-.767-3.849-1.91-7.607-.379-1.108-.79-2.206c.82-.05,1.641-.1,2.462-.126Z" transform="translate(-34.626 -239.296)" fill="url(#linear-gradient)"/>
</svg>
